HIERARCHY
ROOT Hips
{
 OFFSET 0.000000 0.000000 0.000000
 CHANNELS 6 Xposition Yposition Zposition Yrotation Xrotation Zrotation
 JOINT Chest
 {
  OFFSET 0.000000 10.354800 0.006500
  CHANNELS 3 Yrotation Xrotation Zrotation
  JOINT Chest2
  {
   OFFSET 0.000000 10.435800 -0.013200
   CHANNELS 3 Yrotation Xrotation Zrotation
   JOINT Chest3
   {
    OFFSET 0.000000 10.393700 0.000000
    CHANNELS 3 Yrotation Xrotation Zrotation
    JOINT Chest4
    {
     OFFSET 0.000000 10.383100 0.000000
     CHANNELS 3 Yrotation Xrotation Zrotation
     JOINT Neck
     {
      OFFSET 0.000000 15.694000 0.000000
      CHANNELS 3 Yrotation Xrotation Zrotation
      JOINT Head
      {
       OFFSET 0.000000 9.711000 -0.028000
       CHANNELS 3 Yrotation Xrotation Zrotation
       End Site
       {
        OFFSET 0.000000 18.578700 -0.014800
       }
      }
     }
     JOINT RightCollar
     {
      OFFSET -3.157200 10.367500 0.000000
      CHANNELS 3 Yrotation Xrotation Zrotation
      JOINT RightShoulder
      {
       OFFSET -14.482500 0.000000 0.000000
       CHANNELS 3 Yrotation Xrotation Zrotation
       JOINT RightElbow
       {
        OFFSET 0.000000 -31.707800 0.000000
        CHANNELS 3 Yrotation Xrotation Zrotation
        JOINT RightWrist
        {
         OFFSET 0.000000 -25.659300 0.000000
         CHANNELS 3 Yrotation Xrotation Zrotation
         End Site
         {
          OFFSET 0.000000 -18.994300 0.000000
         }
        }
       }
      }
     }
     JOINT LeftCollar
     {
      OFFSET 3.157200 10.367500 0.000000
      CHANNELS 3 Yrotation Xrotation Zrotation
      JOINT LeftShoulder
      {
       OFFSET 14.482500 0.000000 0.000000
       CHANNELS 3 Yrotation Xrotation Zrotation
       JOINT LeftElbow
       {
        OFFSET 0.000000 -31.707800 0.000000
        CHANNELS 3 Yrotation Xrotation Zrotation
        JOINT LeftWrist
        {
         OFFSET 0.000000 -25.659300 0.000000
         CHANNELS 3 Yrotation Xrotation Zrotation
         End Site
         {
          OFFSET 0.000000 -18.994300 0.000000
         }
        }
       }
      }
     }
    }
   }
  }
 }
 JOINT RightHip
 {
  OFFSET -8.365600 -0.032100 -0.003200
  CHANNELS 3 Yrotation Xrotation Zrotation
  JOINT RightKnee
  {
   OFFSET 0.000000 -43.980000 0.003100
   CHANNELS 3 Yrotation Xrotation Zrotation
   JOINT RightAnkle
   {
    OFFSET 0.000000 -42.882800 0.005200
    CHANNELS 3 Yrotation Xrotation Zrotation
    JOINT RightToe
    {
     OFFSET 0.000000 -4.915500 10.826300
     CHANNELS 3 Yrotation Xrotation Zrotation
     End Site
     {
      OFFSET 0.000000 -1.517500 6.175900
     }
    }
   }
  }
 }
 JOINT LeftHip
 {
  OFFSET 8.365600 -0.032100 -0.003200
  CHANNELS 3 Yrotation Xrotation Zrotation
  JOINT LeftKnee
  {
   OFFSET 0.000000 -43.980000 0.003100
   CHANNELS 3 Yrotation Xrotation Zrotation
   JOINT LeftAnkle
   {
    OFFSET 0.000000 -42.882800 0.005200
    CHANNELS 3 Yrotation Xrotation Zrotation
    JOINT LeftToe
    {
     OFFSET 0.000000 -4.915500 10.826300
     CHANNELS 3 Yrotation Xrotation Zrotation
     End Site
     {
      OFFSET 0.000000 -1.517500 6.175900
     }
    }
   }
  }
 }
}
MOTION
Frames: 12
Frame Time: 0.008333
0.000000 91.618600 0.000000 0.000000 -5.767877 0.000000 0.000000 11.653817 0.000000 0.000000 -5.885947 0.000000 0.000000 -0.000000 0.000000 0.000000 -0.000000 0.000000 0.000000 12.528835 0.000000 0.000000 0.711642 0.000000 0.000000 -0.000000 0.000000 0.000000 0.000000 -90.000000 0.000000 -2.309062 0.000000 0.000000 2.309062 0.000000 0.000000 -0.000000 0.000000 0.000000 -0.000000 90.000000 0.000000 -2.309062 0.000000 0.000000 2.309062 0.000000 0.000000 8.520406 0.000000 0.000000 1.905762 0.000000 -0.000000 -4.658285 0.000000 0.000000 -0.000000 0.000000 0.000000 8.520406 0.000000 0.000000 1.905762 0.000000 -0.000000 -4.658285 0.000000 0.000000 -0.000000 0.000000
-8.893634 126.694431 22.901963 171.386044 -23.208692 -3.584850 -2.088951 14.340651 3.322819 -0.222679 1.294351 0.321161 -0.371077 2.182186 0.538532 -1.904806 12.808938 2.991301 1.212441 19.843024 -4.512427 2.333686 -4.561018 -5.126097 1.960041 5.794340 -5.259402 4.346392 -5.320913 -3.818996 -111.127726 -56.555564 141.838639 -16.860295 -30.431575 -47.099327 -1.792023 6.436114 -0.824103 3.106362 -6.350415 -2.464786 126.247651 -63.510484 -163.870154 20.670944 -9.600698 45.902590 8.466119 -58.443507 -4.802927 -93.314518 78.166332 -87.536809 4.490615 5.190051 -15.686058 0.001403 0.004412 0.000637 -22.217373 -59.018492 5.182962 118.343723 85.175818 111.662879 -3.402909 -25.765339 -0.446134 -0.001990 0.005557 -0.000904
-8.893393 126.696491 22.903566 171.379834 -23.238214 -3.591779 -2.085499 14.337825 3.322061 -0.228063 1.276958 0.316753 -0.365282 2.199833 0.541847 -1.903490 12.809967 2.988508 1.213004 19.862186 -4.508051 2.333391 -4.558755 -5.126358 1.963190 5.793129 -5.249625 4.342028 -5.325039 -3.787325 -111.218196 -56.521839 141.922515 -16.822846 -30.379315 -47.136224 -1.786729 6.453913 -0.817825 3.115606 -6.329577 -2.467600 126.086894 -63.511413 -163.755346 20.758251 -9.606342 45.935769 8.452814 -58.415148 -4.775571 -93.293514 78.164111 -87.518323 4.523500 5.193341 -15.691839 0.003605 0.001454 0.001637 -22.181872 -58.990446 5.165180 118.413891 85.182641 111.732945 -3.394912 -25.760708 -0.441612 -0.001724 0.005821 -0.000783
-8.891897 126.700693 22.901350 171.366519 -23.298120 -3.601137 -2.086245 14.328997 3.315139 -0.221003 1.303000 0.322267 -0.371867 2.173403 0.535521 -1.897347 12.846384 2.991305 1.215480 19.867263 -4.509343 2.340071 -4.541655 -5.123608 1.972747 5.789253 -5.245370 4.335861 -5.321462 -3.748702 -111.194524 -56.513254 141.908992 -16.811111 -30.375559 -47.131513 -1.776610 6.457677 -0.815975 3.128536 -6.292039 -2.467615 126.035519 -63.511148 -163.730047 20.875433 -9.595576 45.977788 8.431514 -58.357613 -4.729876 -93.286618 78.163479 -87.513393 4.524699 5.197039 -15.689501 0.001134 -0.001753 0.000515 -22.099433 -58.932871 5.112048 118.502662 85.189881 111.837533 -3.393437 -25.760745 -0.432497 0.000156 0.003634 0.000071
-8.893784 126.701874 22.905963 171.366985 -23.317255 -3.604276 -2.089046 14.314567 3.310123 -0.222239 1.293912 0.320290 -0.370043 2.198839 0.540201 -1.901281 12.827920 2.986189 1.222839 19.856241 -4.513434 2.342980 -4.519576 -5.120640 1.972777 5.760026 -5.238954 4.337967 -5.280927 -3.717431 -111.167315 -56.518421 141.890028 -16.929067 -30.405896 -47.089301 -1.765796 6.431686 -0.815407 3.153316 -6.215023 -2.465072 125.836931 -63.510225 -163.598353 20.876742 -9.607320 46.017783 8.425309 -58.337798 -4.719361 -93.289957 78.166032 -87.517450 4.505805 5.194984 -15.683509 -0.000482 0.001118 -0.000219 -22.073970 -58.916466 5.091429 118.522949 85.192627 111.862644 -3.394259 -25.759895 -0.440361 0.001234 0.004422 0.000560
-8.896176 126.702965 22.910955 171.368257 -23.336079 -3.606011 -2.094092 14.300316 3.301766 -0.222068 1.293298 0.320184 -0.367675 2.215348 0.544927 -1.902018 12.808168 2.983451 1.227707 19.877519 -4.511201 2.353914 -4.529479 -5.128955 1.969865 5.764906 -5.234330 4.340852 -5.256916 -3.705479 -111.154450 -56.501130 141.881543 -16.986166 -30.401842 -47.078072 -1.761177 6.445561 -0.815932 3.216453 -6.167357 -2.481693 125.673716 -63.515355 -163.533320 20.868150 -9.607352 46.061028 8.423106 -58.317702 -4.712212 -93.300165 78.165410 -87.530112 4.498754 5.190858 -15.676459 0.000127 0.003813 0.000058 -22.058531 -58.898128 5.079254 118.535999 85.201360 111.868717 -3.399793 -25.773287 -0.448607 -0.002244 0.003641 -0.001019
-8.897351 126.704977 22.914237 171.366946 -23.367802 -3.612163 -2.098256 14.299368 3.296347 -0.221764 1.292690 0.319993 -0.360873 2.214675 0.546062 -1.908657 12.767855 2.974116 1.244982 19.920113 -4.501821 2.364136 -4.523723 -5.130914 1.973481 5.823438 -5.218246 4.334561 -5.270649 -3.666707 -111.098276 -56.491605 141.830626 -17.008743 -30.376977 -47.077718 -1.754434 6.513278 -0.805486 3.228875 -6.155203 -2.485720 125.488888 -63.544785 -163.379684 20.820607 -9.637886 46.062536 8.405088 -58.289678 -4.689174 -93.323237 78.165844 -87.562210 4.509464 5.189973 -15.668303 -0.001946 0.001998 -0.000884 -22.025684 -58.866191 5.059524 118.641389 85.208708 111.972233 -3.404888 -25.787416 -0.443686 -0.003688 0.003267 -0.001674
-8.897173 126.706893 22.918150 171.353890 -23.398440 -3.621285 -2.090730 14.297357 3.299698 -0.221431 1.292159 0.319673 -0.363487 2.212400 0.543720 -1.900010 12.785621 2.977853 1.252945 19.905006 -4.506068 2.377649 -4.517069 -5.134970 1.974822 5.825596 -5.214669 4.306180 -5.296475 -3.598624 -111.027312 -56.468589 141.768525 -16.973381 -30.307100 -47.077001 -1.741529 6.501702 -0.802099 3.230586 -6.121607 -2.489361 125.446277 -63.560151 -163.341209 20.823259 -9.608543 46.087844 8.398275 -58.259534 -4.660144 -93.330798 78.162596 -87.572197 4.522709 5.185469 -15.660018 -0.002631 0.003345 -0.001195 -22.000141 -58.832654 5.058987 118.711021 85.215926 112.043957 -3.409363 -25.796509 -0.444207 -0.002535 0.003362 -0.001151
-8.895870 126.710458 22.918392 171.337926 -23.452408 -3.631659 -2.077675 14.318677 3.306857 -0.218275 1.308246 0.321984 -0.364174 2.195613 0.538771 -1.896885 12.801996 2.979507 1.260948 19.891145 -4.512646 2.389992 -4.512743 -5.138758 1.972120 5.808622 -5.210277 4.297262 -5.273215 -3.571431 -111.010549 -56.458316 141.755912 -16.979264 -30.279798 -47.076570 -1.726301 6.486608 -0.796343 3.229822 -6.080591 -2.503495 125.436177 -63.576007 -163.332753 20.824616 -9.576234 46.097044 8.384705 -58.207851 -4.617353 -93.340126 78.158917 -87.582203 4.542331 5.182714 -15.662328 0.000085 -0.000604 0.000039 -21.961428 -58.777461 5.043312 118.765972 85.218851 112.103599 -3.411636 -25.800155 -0.443977 -0.001649 0.001504 -0.000749
-8.897216 126.711778 22.922974 171.333745 -23.476832 -3.634897 -2.077994 14.310362 3.304471 -0.218524 1.324518 0.323721 -0.368238 2.177600 0.535674 -1.892386 12.798955 2.979940 1.274458 19.863659 -4.526025 2.399156 -4.476000 -5.134683 1.977096 5.812982 -5.206238 4.292884 -5.242485 -3.560575 -111.007942 -56.451123 141.752777 -16.996062 -30.275275 -47.099155 -1.712967 6.495489 -0.794302 3.225246 -6.043313 -2.530911 125.440541 -63.597677 -163.339879 20.826236 -9.556784 46.086947 8.379060 -58.184431 -4.601829 -93.353268 78.155947 -87.597272 4.521106 5.179266 -15.658250 -0.000713 0.000489 -0.000324 -21.939146 -58.751829 5.034361 118.749166 85.220782 112.086746 -3.425602 -25.806856 -0.445524 -0.001109 0.000787 -0.000504
-8.899097 126.712078 22.929592 171.333625 -23.487705 -3.637602 -2.081691 14.288693 3.299991 -0.220452 1.298621 0.321154 -0.364104 2.203076 0.538893 -1.890697 12.798249 2.978138 1.278286 19.864796 -4.528602 2.404810 -4.470476 -5.138553 1.977671 5.817896 -5.202854 4.273724 -5.215707 -3.524892 -111.006189 -56.465569 141.767512 -16.985676 -30.281123 -47.139356 -1.692309 6.471508 -0.796708 3.202436 -5.984195 -2.522453 125.386422 -63.596704 -163.286938 20.830105 -9.547564 46.066974 8.388924 -58.174064 -4.603381 -93.361954 78.153869 -87.603634 4.500768 5.177587 -15.651815 -0.001067 0.002376 -0.000484 -21.927876 -58.741808 5.034984 118.701032 85.213511 112.035269 -3.446369 -25.804128 -0.445647 -0.000700 0.000019 -0.000318
-8.899526 126.713499 22.933688 171.327344 -23.514354 -3.642926 -2.073862 14.283833 3.300486 -0.222071 1.321439 0.326042 -0.367429 2.176211 0.535106 -1.888236 12.795429 2.978588 1.282725 19.869713 -4.535202 2.418790 -4.497956 -5.159593 1.984391 5.824582 -5.196714 4.254255 -5.185419 -3.493559 -111.043251 -56.460390 141.803497 -16.911758 -30.274566 -47.217153 -1.680203 6.488178 -0.799468 3.200548 -5.957485 -2.530066 125.318358 -63.595053 -163.239752 20.838101 -9.549179 46.044793 8.413058 -58.146948 -4.607682 -93.353377 78.156590 -87.587193 4.493193 5.183156 -15.641793 -0.003344 0.002923 -0.001518 -21.895736 -58.715579 5.019621 118.638416 85.207350 111.979106 -3.462146 -25.798549 -0.441908 0.000565 -0.001406 0.000257
